G04 (created by PCBNEW (2013-may-18)-stable) date Sun 03 May 2015 02:23:39 PM EDT*
%MOIN*%
G04 Gerber Fmt 3.4, Leading zero omitted, Abs format*
%FSLAX34Y34*%
G01*
G70*
G90*
G04 APERTURE LIST*
%ADD10C,0.00590551*%
%ADD11R,0.06X0.06*%
%ADD12C,0.06*%
%ADD13R,0.216535X0.0590551*%
%ADD14R,0.0177X0.0787*%
%ADD15R,0.0787X0.0177*%
%ADD16C,0.035*%
%ADD17C,0.01*%
G04 APERTURE END LIST*
G54D10*
G54D11*
X15248Y-6775D03*
G54D12*
X16248Y-6775D03*
X15248Y-7775D03*
X16248Y-7775D03*
X15248Y-8775D03*
X16248Y-8775D03*
G54D11*
X16220Y-14342D03*
X7035Y-6783D03*
X7035Y-8283D03*
X7035Y-9783D03*
X7035Y-11283D03*
X7035Y-12783D03*
X7035Y-14283D03*
X16220Y-11342D03*
X16220Y-12842D03*
G54D13*
X13188Y-13779D03*
X9842Y-13779D03*
G54D14*
X12539Y-11413D03*
X12224Y-11413D03*
X11909Y-11413D03*
X11594Y-11413D03*
X11279Y-11413D03*
X10964Y-11413D03*
X10649Y-11413D03*
X10334Y-11413D03*
X10336Y-7647D03*
X12546Y-7647D03*
X12226Y-7647D03*
X11906Y-7647D03*
X11596Y-7647D03*
X11276Y-7647D03*
X10966Y-7647D03*
X10646Y-7647D03*
G54D15*
X9546Y-10629D03*
X9546Y-10315D03*
X9546Y-9999D03*
X9546Y-9685D03*
X9546Y-9369D03*
X9546Y-9055D03*
X9546Y-8739D03*
X9546Y-8425D03*
X13326Y-10627D03*
X13326Y-10317D03*
X13326Y-9997D03*
X13326Y-9687D03*
X13326Y-9377D03*
X13326Y-9057D03*
X13326Y-8737D03*
X13326Y-8417D03*
G54D16*
X12106Y-8562D03*
X11614Y-10531D03*
X10925Y-8759D03*
X14271Y-7775D03*
X14271Y-8661D03*
X11811Y-9055D03*
X11614Y-6594D03*
X10531Y-10236D03*
X11515Y-8366D03*
X10433Y-9153D03*
X10433Y-8366D03*
X8759Y-10531D03*
X9547Y-12204D03*
X7677Y-10531D03*
X12500Y-10236D03*
X12598Y-8464D03*
X13484Y-7775D03*
X13484Y-6791D03*
X14271Y-11811D03*
X14960Y-14566D03*
X15255Y-12795D03*
X7874Y-9251D03*
X8169Y-7775D03*
X12303Y-12795D03*
X9842Y-14665D03*
X13188Y-14665D03*
G54D17*
X12226Y-7647D02*
X12226Y-8442D01*
X12204Y-8661D02*
X12106Y-8562D01*
X12204Y-9940D02*
X11614Y-10531D01*
X12204Y-9940D02*
X12204Y-8661D01*
X12226Y-8442D02*
X12106Y-8562D01*
X16248Y-6775D02*
X16224Y-6775D01*
X16224Y-6775D02*
X15649Y-6200D01*
X15649Y-6200D02*
X12598Y-6200D01*
X12598Y-6200D02*
X12226Y-6572D01*
X12226Y-6572D02*
X12226Y-7647D01*
X11909Y-11413D02*
X11909Y-10827D01*
X11909Y-10827D02*
X11614Y-10531D01*
X11279Y-10865D02*
X11614Y-10531D01*
X11279Y-10865D02*
X11279Y-11413D01*
X9546Y-8739D02*
X10905Y-8739D01*
X10905Y-8739D02*
X10925Y-8759D01*
X13629Y-8417D02*
X13326Y-8417D01*
X14271Y-7775D02*
X13629Y-8417D01*
X14195Y-8737D02*
X13326Y-8737D01*
X14271Y-8661D02*
X14195Y-8737D01*
X9546Y-9685D02*
X11180Y-9685D01*
X11180Y-9685D02*
X11811Y-9055D01*
X15248Y-7775D02*
X15248Y-7767D01*
X12546Y-7531D02*
X12546Y-7647D01*
X12696Y-7381D02*
X12546Y-7531D01*
X14862Y-7381D02*
X12696Y-7381D01*
X15248Y-7767D02*
X14862Y-7381D01*
X8267Y-12500D02*
X8267Y-9744D01*
X7035Y-12783D02*
X7984Y-12783D01*
X8642Y-9369D02*
X8267Y-9744D01*
X8642Y-9369D02*
X9546Y-9369D01*
X7984Y-12783D02*
X8267Y-12500D01*
X7035Y-8283D02*
X7791Y-8283D01*
X8563Y-9055D02*
X7791Y-8283D01*
X8563Y-9055D02*
X9546Y-9055D01*
X11276Y-6931D02*
X11614Y-6594D01*
X11276Y-7647D02*
X11276Y-6931D01*
X11515Y-8366D02*
X10433Y-8366D01*
X9547Y-12204D02*
X9448Y-12204D01*
X8759Y-11515D02*
X8759Y-10531D01*
X9448Y-12204D02*
X8759Y-11515D01*
X12500Y-10236D02*
X12500Y-10137D01*
X12598Y-10039D02*
X12598Y-8464D01*
X12500Y-10137D02*
X12598Y-10039D01*
X13484Y-6791D02*
X13385Y-6791D01*
X14740Y-11342D02*
X14271Y-11811D01*
X16220Y-11342D02*
X14740Y-11342D01*
X14960Y-13090D02*
X14960Y-14566D01*
X15255Y-12795D02*
X14960Y-13090D01*
X7035Y-6783D02*
X7177Y-6783D01*
X7177Y-6783D02*
X8169Y-7775D01*
X11594Y-11413D02*
X11594Y-12027D01*
X11594Y-12027D02*
X11515Y-12106D01*
X10964Y-11413D02*
X10964Y-12066D01*
X10964Y-12066D02*
X10925Y-12106D01*
X9842Y-13779D02*
X9842Y-14665D01*
X12224Y-11987D02*
X11515Y-12696D01*
X12224Y-11413D02*
X12224Y-11987D01*
X9842Y-12992D02*
X9842Y-13779D01*
X10137Y-12696D02*
X9842Y-12992D01*
X11515Y-12696D02*
X10137Y-12696D01*
X13188Y-13779D02*
X13188Y-14665D01*
X12539Y-11413D02*
X12539Y-12047D01*
X13188Y-12696D02*
X13188Y-13779D01*
X12539Y-12047D02*
X13188Y-12696D01*
G54D10*
G36*
X11777Y-8291D02*
X11746Y-8321D01*
X11681Y-8478D01*
X11681Y-8647D01*
X11681Y-8648D01*
X11570Y-8694D01*
X11450Y-8814D01*
X11386Y-8970D01*
X11386Y-9055D01*
X11056Y-9385D01*
X10190Y-9385D01*
X10190Y-9231D01*
X10182Y-9212D01*
X10190Y-9194D01*
X10190Y-9094D01*
X10190Y-9039D01*
X10604Y-9039D01*
X10684Y-9119D01*
X10840Y-9184D01*
X11009Y-9184D01*
X11165Y-9120D01*
X11285Y-9000D01*
X11350Y-8844D01*
X11350Y-8675D01*
X11285Y-8519D01*
X11166Y-8399D01*
X11010Y-8334D01*
X10841Y-8334D01*
X10684Y-8399D01*
X10644Y-8439D01*
X10190Y-8439D01*
X10190Y-8287D01*
X10198Y-8291D01*
X10297Y-8291D01*
X10474Y-8291D01*
X10491Y-8284D01*
X10508Y-8291D01*
X10607Y-8291D01*
X10784Y-8291D01*
X10806Y-8282D01*
X10828Y-8291D01*
X10927Y-8291D01*
X11104Y-8291D01*
X11121Y-8284D01*
X11138Y-8291D01*
X11170Y-8291D01*
X11232Y-8228D01*
X11232Y-8217D01*
X11267Y-8183D01*
X11281Y-8147D01*
X11296Y-8182D01*
X11321Y-8207D01*
X11321Y-8228D01*
X11383Y-8291D01*
X11415Y-8291D01*
X11436Y-8282D01*
X11458Y-8291D01*
X11557Y-8291D01*
X11734Y-8291D01*
X11751Y-8284D01*
X11768Y-8291D01*
X11777Y-8291D01*
X11777Y-8291D01*
G37*
G54D17*
X11777Y-8291D02*
X11746Y-8321D01*
X11681Y-8478D01*
X11681Y-8647D01*
X11681Y-8648D01*
X11570Y-8694D01*
X11450Y-8814D01*
X11386Y-8970D01*
X11386Y-9055D01*
X11056Y-9385D01*
X10190Y-9385D01*
X10190Y-9231D01*
X10182Y-9212D01*
X10190Y-9194D01*
X10190Y-9094D01*
X10190Y-9039D01*
X10604Y-9039D01*
X10684Y-9119D01*
X10840Y-9184D01*
X11009Y-9184D01*
X11165Y-9120D01*
X11285Y-9000D01*
X11350Y-8844D01*
X11350Y-8675D01*
X11285Y-8519D01*
X11166Y-8399D01*
X11010Y-8334D01*
X10841Y-8334D01*
X10684Y-8399D01*
X10644Y-8439D01*
X10190Y-8439D01*
X10190Y-8287D01*
X10198Y-8291D01*
X10297Y-8291D01*
X10474Y-8291D01*
X10491Y-8284D01*
X10508Y-8291D01*
X10607Y-8291D01*
X10784Y-8291D01*
X10806Y-8282D01*
X10828Y-8291D01*
X10927Y-8291D01*
X11104Y-8291D01*
X11121Y-8284D01*
X11138Y-8291D01*
X11170Y-8291D01*
X11232Y-8228D01*
X11232Y-8217D01*
X11267Y-8183D01*
X11281Y-8147D01*
X11296Y-8182D01*
X11321Y-8207D01*
X11321Y-8228D01*
X11383Y-8291D01*
X11415Y-8291D01*
X11436Y-8282D01*
X11458Y-8291D01*
X11557Y-8291D01*
X11734Y-8291D01*
X11751Y-8284D01*
X11768Y-8291D01*
X11777Y-8291D01*
G54D10*
G36*
X11904Y-9816D02*
X11614Y-10106D01*
X11530Y-10106D01*
X11373Y-10170D01*
X11254Y-10290D01*
X11189Y-10446D01*
X11189Y-10532D01*
X11067Y-10653D01*
X11002Y-10751D01*
X10979Y-10865D01*
X10979Y-10878D01*
X10979Y-10878D01*
X10964Y-10913D01*
X10950Y-10878D01*
X10920Y-10848D01*
X10920Y-10832D01*
X10858Y-10770D01*
X10826Y-10770D01*
X10807Y-10778D01*
X10788Y-10770D01*
X10688Y-10770D01*
X10511Y-10770D01*
X10492Y-10778D01*
X10473Y-10770D01*
X10373Y-10770D01*
X10196Y-10770D01*
X10187Y-10773D01*
X10190Y-10768D01*
X10190Y-10668D01*
X10190Y-10491D01*
X10182Y-10472D01*
X10190Y-10454D01*
X10190Y-10354D01*
X10190Y-10177D01*
X10182Y-10157D01*
X10190Y-10138D01*
X10190Y-10038D01*
X10190Y-9985D01*
X11180Y-9985D01*
X11180Y-9985D01*
X11295Y-9962D01*
X11295Y-9962D01*
X11392Y-9897D01*
X11810Y-9480D01*
X11895Y-9480D01*
X11904Y-9476D01*
X11904Y-9816D01*
X11904Y-9816D01*
G37*
G54D17*
X11904Y-9816D02*
X11614Y-10106D01*
X11530Y-10106D01*
X11373Y-10170D01*
X11254Y-10290D01*
X11189Y-10446D01*
X11189Y-10532D01*
X11067Y-10653D01*
X11002Y-10751D01*
X10979Y-10865D01*
X10979Y-10878D01*
X10979Y-10878D01*
X10964Y-10913D01*
X10950Y-10878D01*
X10920Y-10848D01*
X10920Y-10832D01*
X10858Y-10770D01*
X10826Y-10770D01*
X10807Y-10778D01*
X10788Y-10770D01*
X10688Y-10770D01*
X10511Y-10770D01*
X10492Y-10778D01*
X10473Y-10770D01*
X10373Y-10770D01*
X10196Y-10770D01*
X10187Y-10773D01*
X10190Y-10768D01*
X10190Y-10668D01*
X10190Y-10491D01*
X10182Y-10472D01*
X10190Y-10454D01*
X10190Y-10354D01*
X10190Y-10177D01*
X10182Y-10157D01*
X10190Y-10138D01*
X10190Y-10038D01*
X10190Y-9985D01*
X11180Y-9985D01*
X11180Y-9985D01*
X11295Y-9962D01*
X11295Y-9962D01*
X11392Y-9897D01*
X11810Y-9480D01*
X11895Y-9480D01*
X11904Y-9476D01*
X11904Y-9816D01*
G54D10*
G36*
X12692Y-10157D02*
X12683Y-10179D01*
X12683Y-10278D01*
X12683Y-10455D01*
X12690Y-10472D01*
X12683Y-10489D01*
X12683Y-10588D01*
X12683Y-10765D01*
X12686Y-10773D01*
X12678Y-10770D01*
X12578Y-10770D01*
X12401Y-10770D01*
X12382Y-10778D01*
X12363Y-10770D01*
X12263Y-10770D01*
X12198Y-10770D01*
X12187Y-10712D01*
X12121Y-10615D01*
X12121Y-10615D01*
X12039Y-10532D01*
X12039Y-10530D01*
X12416Y-10153D01*
X12416Y-10153D01*
X12481Y-10055D01*
X12504Y-9940D01*
X12504Y-9940D01*
X12504Y-8711D01*
X12531Y-8647D01*
X12531Y-8478D01*
X12523Y-8459D01*
X12526Y-8442D01*
X12526Y-8442D01*
X12526Y-8291D01*
X12683Y-8291D01*
X12683Y-8378D01*
X12683Y-8555D01*
X12692Y-8577D01*
X12683Y-8599D01*
X12683Y-8698D01*
X12683Y-8875D01*
X12692Y-8897D01*
X12683Y-8919D01*
X12683Y-9018D01*
X12683Y-9195D01*
X12692Y-9217D01*
X12683Y-9239D01*
X12683Y-9338D01*
X12683Y-9515D01*
X12690Y-9532D01*
X12683Y-9549D01*
X12683Y-9648D01*
X12683Y-9825D01*
X12690Y-9842D01*
X12683Y-9859D01*
X12683Y-9958D01*
X12683Y-10135D01*
X12692Y-10157D01*
X12692Y-10157D01*
G37*
G54D17*
X12692Y-10157D02*
X12683Y-10179D01*
X12683Y-10278D01*
X12683Y-10455D01*
X12690Y-10472D01*
X12683Y-10489D01*
X12683Y-10588D01*
X12683Y-10765D01*
X12686Y-10773D01*
X12678Y-10770D01*
X12578Y-10770D01*
X12401Y-10770D01*
X12382Y-10778D01*
X12363Y-10770D01*
X12263Y-10770D01*
X12198Y-10770D01*
X12187Y-10712D01*
X12121Y-10615D01*
X12121Y-10615D01*
X12039Y-10532D01*
X12039Y-10530D01*
X12416Y-10153D01*
X12416Y-10153D01*
X12481Y-10055D01*
X12504Y-9940D01*
X12504Y-9940D01*
X12504Y-8711D01*
X12531Y-8647D01*
X12531Y-8478D01*
X12523Y-8459D01*
X12526Y-8442D01*
X12526Y-8442D01*
X12526Y-8291D01*
X12683Y-8291D01*
X12683Y-8378D01*
X12683Y-8555D01*
X12692Y-8577D01*
X12683Y-8599D01*
X12683Y-8698D01*
X12683Y-8875D01*
X12692Y-8897D01*
X12683Y-8919D01*
X12683Y-9018D01*
X12683Y-9195D01*
X12692Y-9217D01*
X12683Y-9239D01*
X12683Y-9338D01*
X12683Y-9515D01*
X12690Y-9532D01*
X12683Y-9549D01*
X12683Y-9648D01*
X12683Y-9825D01*
X12690Y-9842D01*
X12683Y-9859D01*
X12683Y-9958D01*
X12683Y-10135D01*
X12692Y-10157D01*
G54D10*
G36*
X13850Y-7681D02*
X13846Y-7690D01*
X13846Y-7776D01*
X13543Y-8079D01*
X12885Y-8079D01*
X12885Y-7991D01*
X12885Y-7681D01*
X13850Y-7681D01*
X13850Y-7681D01*
G37*
G54D17*
X13850Y-7681D02*
X13846Y-7690D01*
X13846Y-7776D01*
X13543Y-8079D01*
X12885Y-8079D01*
X12885Y-7991D01*
X12885Y-7681D01*
X13850Y-7681D01*
G54D10*
G36*
X14698Y-6500D02*
X14697Y-6525D01*
X14697Y-7081D01*
X12816Y-7081D01*
X12777Y-7042D01*
X12685Y-7004D01*
X12585Y-7004D01*
X12526Y-7004D01*
X12526Y-6696D01*
X12722Y-6500D01*
X14698Y-6500D01*
X14698Y-6500D01*
G37*
G54D17*
X14698Y-6500D02*
X14697Y-6525D01*
X14697Y-7081D01*
X12816Y-7081D01*
X12777Y-7042D01*
X12685Y-7004D01*
X12585Y-7004D01*
X12526Y-7004D01*
X12526Y-6696D01*
X12722Y-6500D01*
X14698Y-6500D01*
G54D10*
G36*
X17469Y-15205D02*
X16802Y-15205D01*
X16802Y-8857D01*
X16798Y-8763D01*
X16798Y-7666D01*
X16714Y-7464D01*
X16559Y-7309D01*
X16478Y-7275D01*
X16559Y-7242D01*
X16714Y-7087D01*
X16797Y-6885D01*
X16798Y-6666D01*
X16714Y-6464D01*
X16559Y-6309D01*
X16357Y-6225D01*
X16139Y-6225D01*
X16110Y-6237D01*
X15861Y-5988D01*
X15764Y-5923D01*
X15649Y-5900D01*
X12598Y-5900D01*
X12483Y-5923D01*
X12386Y-5988D01*
X12014Y-6360D01*
X11949Y-6457D01*
X11926Y-6572D01*
X11926Y-7004D01*
X11768Y-7004D01*
X11751Y-7011D01*
X11735Y-7004D01*
X11635Y-7004D01*
X11458Y-7004D01*
X11436Y-7013D01*
X11415Y-7004D01*
X11383Y-7004D01*
X11321Y-7066D01*
X11321Y-7087D01*
X11296Y-7112D01*
X11281Y-7147D01*
X11267Y-7112D01*
X11232Y-7077D01*
X11232Y-7066D01*
X11170Y-7004D01*
X11138Y-7004D01*
X11121Y-7011D01*
X11105Y-7004D01*
X11005Y-7004D01*
X10828Y-7004D01*
X10806Y-7013D01*
X10785Y-7004D01*
X10685Y-7004D01*
X10508Y-7004D01*
X10491Y-7011D01*
X10475Y-7004D01*
X10375Y-7004D01*
X10198Y-7004D01*
X10106Y-7042D01*
X10036Y-7112D01*
X9998Y-7204D01*
X9998Y-7303D01*
X9998Y-8090D01*
X9990Y-8087D01*
X9890Y-8087D01*
X9103Y-8087D01*
X9011Y-8125D01*
X8941Y-8195D01*
X8903Y-8287D01*
X8903Y-8386D01*
X8903Y-8563D01*
X8911Y-8582D01*
X8903Y-8601D01*
X8903Y-8700D01*
X8903Y-8755D01*
X8687Y-8755D01*
X8003Y-8071D01*
X7906Y-8006D01*
X7791Y-7983D01*
X7585Y-7983D01*
X7585Y-7933D01*
X7585Y-7132D01*
X7585Y-6433D01*
X7547Y-6342D01*
X7477Y-6271D01*
X7385Y-6233D01*
X7285Y-6233D01*
X7147Y-6233D01*
X7085Y-6295D01*
X7085Y-6733D01*
X7522Y-6733D01*
X7585Y-6670D01*
X7585Y-6433D01*
X7585Y-7132D01*
X7585Y-6895D01*
X7522Y-6833D01*
X7085Y-6833D01*
X7085Y-7270D01*
X7147Y-7333D01*
X7285Y-7333D01*
X7385Y-7333D01*
X7477Y-7295D01*
X7547Y-7224D01*
X7585Y-7132D01*
X7585Y-7933D01*
X7547Y-7842D01*
X7477Y-7771D01*
X7385Y-7733D01*
X7285Y-7733D01*
X6985Y-7733D01*
X6985Y-7270D01*
X6985Y-6833D01*
X6985Y-6733D01*
X6985Y-6295D01*
X6922Y-6233D01*
X6784Y-6233D01*
X6685Y-6233D01*
X6593Y-6271D01*
X6523Y-6342D01*
X6485Y-6433D01*
X6485Y-6670D01*
X6547Y-6733D01*
X6985Y-6733D01*
X6985Y-6833D01*
X6547Y-6833D01*
X6485Y-6895D01*
X6485Y-7132D01*
X6523Y-7224D01*
X6593Y-7295D01*
X6685Y-7333D01*
X6784Y-7333D01*
X6922Y-7333D01*
X6985Y-7270D01*
X6985Y-7733D01*
X6685Y-7733D01*
X6594Y-7771D01*
X6523Y-7841D01*
X6485Y-7933D01*
X6485Y-8032D01*
X6485Y-8632D01*
X6523Y-8724D01*
X6593Y-8795D01*
X6685Y-8833D01*
X6784Y-8833D01*
X7384Y-8833D01*
X7476Y-8795D01*
X7547Y-8725D01*
X7585Y-8633D01*
X7585Y-8583D01*
X7667Y-8583D01*
X8335Y-9251D01*
X8055Y-9531D01*
X7990Y-9629D01*
X7967Y-9744D01*
X7967Y-12375D01*
X7859Y-12483D01*
X7585Y-12483D01*
X7585Y-12433D01*
X7585Y-11533D01*
X7585Y-10933D01*
X7585Y-10033D01*
X7585Y-9433D01*
X7547Y-9342D01*
X7477Y-9271D01*
X7385Y-9233D01*
X7285Y-9233D01*
X6685Y-9233D01*
X6594Y-9271D01*
X6523Y-9341D01*
X6485Y-9433D01*
X6485Y-9532D01*
X6485Y-10132D01*
X6523Y-10224D01*
X6593Y-10295D01*
X6685Y-10333D01*
X6784Y-10333D01*
X7384Y-10333D01*
X7476Y-10295D01*
X7547Y-10225D01*
X7585Y-10133D01*
X7585Y-10033D01*
X7585Y-10933D01*
X7547Y-10842D01*
X7477Y-10771D01*
X7385Y-10733D01*
X7285Y-10733D01*
X6685Y-10733D01*
X6594Y-10771D01*
X6523Y-10841D01*
X6485Y-10933D01*
X6485Y-11032D01*
X6485Y-11632D01*
X6523Y-11724D01*
X6593Y-11795D01*
X6685Y-11833D01*
X6784Y-11833D01*
X7384Y-11833D01*
X7476Y-11795D01*
X7547Y-11725D01*
X7585Y-11633D01*
X7585Y-11533D01*
X7585Y-12433D01*
X7547Y-12342D01*
X7477Y-12271D01*
X7385Y-12233D01*
X7285Y-12233D01*
X6685Y-12233D01*
X6594Y-12271D01*
X6523Y-12341D01*
X6485Y-12433D01*
X6485Y-12532D01*
X6485Y-13132D01*
X6523Y-13224D01*
X6593Y-13295D01*
X6685Y-13333D01*
X6784Y-13333D01*
X7384Y-13333D01*
X7476Y-13295D01*
X7547Y-13225D01*
X7585Y-13133D01*
X7585Y-13083D01*
X7984Y-13083D01*
X7984Y-13083D01*
X8099Y-13060D01*
X8099Y-13060D01*
X8196Y-12995D01*
X8479Y-12712D01*
X8479Y-12712D01*
X8544Y-12614D01*
X8567Y-12500D01*
X8567Y-12500D01*
X8567Y-9868D01*
X8766Y-9669D01*
X8903Y-9669D01*
X8903Y-9823D01*
X8911Y-9842D01*
X8903Y-9861D01*
X8903Y-9960D01*
X8903Y-10137D01*
X8911Y-10157D01*
X8903Y-10177D01*
X8903Y-10276D01*
X8903Y-10453D01*
X8911Y-10472D01*
X8903Y-10491D01*
X8903Y-10590D01*
X8903Y-10767D01*
X8941Y-10859D01*
X9011Y-10930D01*
X9103Y-10968D01*
X9202Y-10968D01*
X9989Y-10968D01*
X9998Y-10964D01*
X9996Y-10970D01*
X9996Y-11069D01*
X9996Y-11856D01*
X10034Y-11948D01*
X10104Y-12019D01*
X10196Y-12057D01*
X10295Y-12057D01*
X10472Y-12057D01*
X10492Y-12049D01*
X10511Y-12057D01*
X10610Y-12057D01*
X10787Y-12057D01*
X10807Y-12049D01*
X10826Y-12057D01*
X10858Y-12057D01*
X10920Y-11994D01*
X10920Y-11978D01*
X10950Y-11949D01*
X10964Y-11913D01*
X10979Y-11948D01*
X11009Y-11978D01*
X11009Y-11994D01*
X11071Y-12057D01*
X11103Y-12057D01*
X11122Y-12049D01*
X11141Y-12057D01*
X11240Y-12057D01*
X11417Y-12057D01*
X11437Y-12049D01*
X11456Y-12057D01*
X11488Y-12057D01*
X11550Y-11994D01*
X11550Y-11978D01*
X11580Y-11949D01*
X11594Y-11913D01*
X11609Y-11948D01*
X11639Y-11978D01*
X11639Y-11994D01*
X11701Y-12057D01*
X11731Y-12057D01*
X11391Y-12396D01*
X10137Y-12396D01*
X10022Y-12419D01*
X9925Y-12484D01*
X9630Y-12779D01*
X9565Y-12877D01*
X9542Y-12992D01*
X9542Y-13234D01*
X8710Y-13234D01*
X8618Y-13272D01*
X8548Y-13342D01*
X8509Y-13434D01*
X8509Y-13533D01*
X8509Y-14124D01*
X8547Y-14216D01*
X8618Y-14286D01*
X8709Y-14324D01*
X8809Y-14324D01*
X9542Y-14324D01*
X9542Y-14364D01*
X9482Y-14424D01*
X9417Y-14580D01*
X9417Y-14749D01*
X9482Y-14905D01*
X9601Y-15025D01*
X9757Y-15090D01*
X9926Y-15090D01*
X10082Y-15025D01*
X10202Y-14906D01*
X10267Y-14750D01*
X10267Y-14581D01*
X10203Y-14424D01*
X10142Y-14364D01*
X10142Y-14324D01*
X10974Y-14324D01*
X11066Y-14286D01*
X11137Y-14216D01*
X11175Y-14124D01*
X11175Y-14025D01*
X11175Y-13434D01*
X11137Y-13342D01*
X11066Y-13272D01*
X10975Y-13234D01*
X10875Y-13234D01*
X10142Y-13234D01*
X10142Y-13116D01*
X10262Y-12996D01*
X11515Y-12996D01*
X11515Y-12996D01*
X11630Y-12974D01*
X11630Y-12974D01*
X11727Y-12908D01*
X12352Y-12284D01*
X12888Y-12821D01*
X12888Y-13234D01*
X12056Y-13234D01*
X11964Y-13272D01*
X11894Y-13342D01*
X11856Y-13434D01*
X11856Y-13533D01*
X11856Y-14124D01*
X11894Y-14216D01*
X11964Y-14286D01*
X12056Y-14324D01*
X12155Y-14324D01*
X12888Y-14324D01*
X12888Y-14364D01*
X12828Y-14424D01*
X12764Y-14580D01*
X12763Y-14749D01*
X12828Y-14905D01*
X12947Y-15025D01*
X13104Y-15090D01*
X13273Y-15090D01*
X13429Y-15025D01*
X13549Y-14906D01*
X13613Y-14750D01*
X13614Y-14581D01*
X13549Y-14424D01*
X13488Y-14364D01*
X13488Y-14324D01*
X14321Y-14324D01*
X14413Y-14286D01*
X14483Y-14216D01*
X14521Y-14124D01*
X14521Y-14025D01*
X14521Y-13434D01*
X14483Y-13342D01*
X14413Y-13272D01*
X14321Y-13234D01*
X14222Y-13234D01*
X13488Y-13234D01*
X13488Y-12696D01*
X13466Y-12582D01*
X13466Y-12582D01*
X13401Y-12484D01*
X12847Y-11931D01*
X12878Y-11857D01*
X12878Y-11757D01*
X12878Y-10970D01*
X12875Y-10962D01*
X12883Y-10966D01*
X12982Y-10966D01*
X13769Y-10966D01*
X13861Y-10928D01*
X13932Y-10858D01*
X13970Y-10766D01*
X13970Y-10666D01*
X13970Y-10489D01*
X13963Y-10472D01*
X13970Y-10456D01*
X13970Y-10356D01*
X13970Y-10179D01*
X13961Y-10157D01*
X13970Y-10136D01*
X13970Y-10036D01*
X13970Y-9859D01*
X13963Y-9842D01*
X13970Y-9826D01*
X13970Y-9726D01*
X13970Y-9549D01*
X13963Y-9532D01*
X13970Y-9516D01*
X13970Y-9416D01*
X13970Y-9239D01*
X13961Y-9217D01*
X13970Y-9196D01*
X13970Y-9096D01*
X13970Y-9037D01*
X14069Y-9037D01*
X14186Y-9086D01*
X14355Y-9086D01*
X14512Y-9021D01*
X14631Y-8902D01*
X14696Y-8746D01*
X14696Y-8577D01*
X14632Y-8420D01*
X14512Y-8301D01*
X14356Y-8236D01*
X14235Y-8236D01*
X14270Y-8200D01*
X14355Y-8200D01*
X14512Y-8136D01*
X14631Y-8016D01*
X14696Y-7860D01*
X14696Y-7691D01*
X14692Y-7681D01*
X14698Y-7681D01*
X14697Y-7884D01*
X14781Y-8086D01*
X14936Y-8241D01*
X15017Y-8275D01*
X14936Y-8309D01*
X14782Y-8463D01*
X14698Y-8665D01*
X14697Y-8884D01*
X14781Y-9086D01*
X14936Y-9241D01*
X15138Y-9325D01*
X15356Y-9325D01*
X15559Y-9242D01*
X15714Y-9087D01*
X15745Y-9011D01*
X15766Y-9063D01*
X15862Y-9090D01*
X16177Y-8775D01*
X15862Y-8460D01*
X15766Y-8487D01*
X15747Y-8543D01*
X15714Y-8464D01*
X15559Y-8309D01*
X15478Y-8275D01*
X15559Y-8242D01*
X15714Y-8087D01*
X15748Y-8005D01*
X15781Y-8086D01*
X15936Y-8241D01*
X16011Y-8272D01*
X15960Y-8294D01*
X15932Y-8389D01*
X16248Y-8704D01*
X16563Y-8389D01*
X16535Y-8294D01*
X16480Y-8274D01*
X16559Y-8242D01*
X16714Y-8087D01*
X16797Y-7885D01*
X16798Y-7666D01*
X16798Y-8763D01*
X16791Y-8638D01*
X16729Y-8487D01*
X16633Y-8460D01*
X16318Y-8775D01*
X16633Y-9090D01*
X16729Y-9063D01*
X16802Y-8857D01*
X16802Y-15205D01*
X16770Y-15205D01*
X16770Y-14593D01*
X16770Y-13993D01*
X16770Y-13093D01*
X16770Y-12493D01*
X16770Y-11692D01*
X16770Y-10993D01*
X16732Y-10901D01*
X16662Y-10830D01*
X16570Y-10792D01*
X16563Y-10792D01*
X16563Y-9161D01*
X16248Y-8846D01*
X15932Y-9161D01*
X15960Y-9256D01*
X16166Y-9330D01*
X16384Y-9319D01*
X16535Y-9256D01*
X16563Y-9161D01*
X16563Y-10792D01*
X16470Y-10792D01*
X16332Y-10792D01*
X16270Y-10855D01*
X16270Y-11292D01*
X16707Y-11292D01*
X16770Y-11230D01*
X16770Y-10993D01*
X16770Y-11692D01*
X16770Y-11455D01*
X16707Y-11392D01*
X16270Y-11392D01*
X16270Y-11830D01*
X16332Y-11892D01*
X16470Y-11892D01*
X16570Y-11892D01*
X16662Y-11854D01*
X16732Y-11783D01*
X16770Y-11692D01*
X16770Y-12493D01*
X16732Y-12401D01*
X16662Y-12330D01*
X16570Y-12292D01*
X16470Y-12292D01*
X16170Y-12292D01*
X16170Y-11830D01*
X16170Y-11392D01*
X16170Y-11292D01*
X16170Y-10855D01*
X16107Y-10792D01*
X15969Y-10792D01*
X15870Y-10792D01*
X15778Y-10830D01*
X15708Y-10901D01*
X15670Y-10993D01*
X15670Y-11230D01*
X15732Y-11292D01*
X16170Y-11292D01*
X16170Y-11392D01*
X15732Y-11392D01*
X15670Y-11455D01*
X15670Y-11692D01*
X15708Y-11783D01*
X15778Y-11854D01*
X15870Y-11892D01*
X15969Y-11892D01*
X16107Y-11892D01*
X16170Y-11830D01*
X16170Y-12292D01*
X15870Y-12292D01*
X15779Y-12330D01*
X15708Y-12400D01*
X15670Y-12492D01*
X15670Y-12592D01*
X15670Y-13192D01*
X15708Y-13283D01*
X15778Y-13354D01*
X15870Y-13392D01*
X15969Y-13392D01*
X16569Y-13392D01*
X16661Y-13354D01*
X16732Y-13284D01*
X16770Y-13192D01*
X16770Y-13093D01*
X16770Y-13993D01*
X16732Y-13901D01*
X16662Y-13830D01*
X16570Y-13792D01*
X16470Y-13792D01*
X15870Y-13792D01*
X15779Y-13830D01*
X15708Y-13900D01*
X15670Y-13992D01*
X15670Y-14092D01*
X15670Y-14692D01*
X15708Y-14783D01*
X15778Y-14854D01*
X15870Y-14892D01*
X15969Y-14892D01*
X16569Y-14892D01*
X16661Y-14854D01*
X16732Y-14784D01*
X16770Y-14692D01*
X16770Y-14593D01*
X16770Y-15205D01*
X7585Y-15205D01*
X7585Y-14533D01*
X7585Y-13933D01*
X7547Y-13842D01*
X7477Y-13771D01*
X7385Y-13733D01*
X7285Y-13733D01*
X6685Y-13733D01*
X6594Y-13771D01*
X6523Y-13841D01*
X6485Y-13933D01*
X6485Y-14032D01*
X6485Y-14632D01*
X6523Y-14724D01*
X6593Y-14795D01*
X6685Y-14833D01*
X6784Y-14833D01*
X7384Y-14833D01*
X7476Y-14795D01*
X7547Y-14725D01*
X7585Y-14633D01*
X7585Y-14533D01*
X7585Y-15205D01*
X5955Y-15205D01*
X5955Y-5857D01*
X17469Y-5857D01*
X17469Y-15205D01*
X17469Y-15205D01*
G37*
G54D17*
X17469Y-15205D02*
X16802Y-15205D01*
X16802Y-8857D01*
X16798Y-8763D01*
X16798Y-7666D01*
X16714Y-7464D01*
X16559Y-7309D01*
X16478Y-7275D01*
X16559Y-7242D01*
X16714Y-7087D01*
X16797Y-6885D01*
X16798Y-6666D01*
X16714Y-6464D01*
X16559Y-6309D01*
X16357Y-6225D01*
X16139Y-6225D01*
X16110Y-6237D01*
X15861Y-5988D01*
X15764Y-5923D01*
X15649Y-5900D01*
X12598Y-5900D01*
X12483Y-5923D01*
X12386Y-5988D01*
X12014Y-6360D01*
X11949Y-6457D01*
X11926Y-6572D01*
X11926Y-7004D01*
X11768Y-7004D01*
X11751Y-7011D01*
X11735Y-7004D01*
X11635Y-7004D01*
X11458Y-7004D01*
X11436Y-7013D01*
X11415Y-7004D01*
X11383Y-7004D01*
X11321Y-7066D01*
X11321Y-7087D01*
X11296Y-7112D01*
X11281Y-7147D01*
X11267Y-7112D01*
X11232Y-7077D01*
X11232Y-7066D01*
X11170Y-7004D01*
X11138Y-7004D01*
X11121Y-7011D01*
X11105Y-7004D01*
X11005Y-7004D01*
X10828Y-7004D01*
X10806Y-7013D01*
X10785Y-7004D01*
X10685Y-7004D01*
X10508Y-7004D01*
X10491Y-7011D01*
X10475Y-7004D01*
X10375Y-7004D01*
X10198Y-7004D01*
X10106Y-7042D01*
X10036Y-7112D01*
X9998Y-7204D01*
X9998Y-7303D01*
X9998Y-8090D01*
X9990Y-8087D01*
X9890Y-8087D01*
X9103Y-8087D01*
X9011Y-8125D01*
X8941Y-8195D01*
X8903Y-8287D01*
X8903Y-8386D01*
X8903Y-8563D01*
X8911Y-8582D01*
X8903Y-8601D01*
X8903Y-8700D01*
X8903Y-8755D01*
X8687Y-8755D01*
X8003Y-8071D01*
X7906Y-8006D01*
X7791Y-7983D01*
X7585Y-7983D01*
X7585Y-7933D01*
X7585Y-7132D01*
X7585Y-6433D01*
X7547Y-6342D01*
X7477Y-6271D01*
X7385Y-6233D01*
X7285Y-6233D01*
X7147Y-6233D01*
X7085Y-6295D01*
X7085Y-6733D01*
X7522Y-6733D01*
X7585Y-6670D01*
X7585Y-6433D01*
X7585Y-7132D01*
X7585Y-6895D01*
X7522Y-6833D01*
X7085Y-6833D01*
X7085Y-7270D01*
X7147Y-7333D01*
X7285Y-7333D01*
X7385Y-7333D01*
X7477Y-7295D01*
X7547Y-7224D01*
X7585Y-7132D01*
X7585Y-7933D01*
X7547Y-7842D01*
X7477Y-7771D01*
X7385Y-7733D01*
X7285Y-7733D01*
X6985Y-7733D01*
X6985Y-7270D01*
X6985Y-6833D01*
X6985Y-6733D01*
X6985Y-6295D01*
X6922Y-6233D01*
X6784Y-6233D01*
X6685Y-6233D01*
X6593Y-6271D01*
X6523Y-6342D01*
X6485Y-6433D01*
X6485Y-6670D01*
X6547Y-6733D01*
X6985Y-6733D01*
X6985Y-6833D01*
X6547Y-6833D01*
X6485Y-6895D01*
X6485Y-7132D01*
X6523Y-7224D01*
X6593Y-7295D01*
X6685Y-7333D01*
X6784Y-7333D01*
X6922Y-7333D01*
X6985Y-7270D01*
X6985Y-7733D01*
X6685Y-7733D01*
X6594Y-7771D01*
X6523Y-7841D01*
X6485Y-7933D01*
X6485Y-8032D01*
X6485Y-8632D01*
X6523Y-8724D01*
X6593Y-8795D01*
X6685Y-8833D01*
X6784Y-8833D01*
X7384Y-8833D01*
X7476Y-8795D01*
X7547Y-8725D01*
X7585Y-8633D01*
X7585Y-8583D01*
X7667Y-8583D01*
X8335Y-9251D01*
X8055Y-9531D01*
X7990Y-9629D01*
X7967Y-9744D01*
X7967Y-12375D01*
X7859Y-12483D01*
X7585Y-12483D01*
X7585Y-12433D01*
X7585Y-11533D01*
X7585Y-10933D01*
X7585Y-10033D01*
X7585Y-9433D01*
X7547Y-9342D01*
X7477Y-9271D01*
X7385Y-9233D01*
X7285Y-9233D01*
X6685Y-9233D01*
X6594Y-9271D01*
X6523Y-9341D01*
X6485Y-9433D01*
X6485Y-9532D01*
X6485Y-10132D01*
X6523Y-10224D01*
X6593Y-10295D01*
X6685Y-10333D01*
X6784Y-10333D01*
X7384Y-10333D01*
X7476Y-10295D01*
X7547Y-10225D01*
X7585Y-10133D01*
X7585Y-10033D01*
X7585Y-10933D01*
X7547Y-10842D01*
X7477Y-10771D01*
X7385Y-10733D01*
X7285Y-10733D01*
X6685Y-10733D01*
X6594Y-10771D01*
X6523Y-10841D01*
X6485Y-10933D01*
X6485Y-11032D01*
X6485Y-11632D01*
X6523Y-11724D01*
X6593Y-11795D01*
X6685Y-11833D01*
X6784Y-11833D01*
X7384Y-11833D01*
X7476Y-11795D01*
X7547Y-11725D01*
X7585Y-11633D01*
X7585Y-11533D01*
X7585Y-12433D01*
X7547Y-12342D01*
X7477Y-12271D01*
X7385Y-12233D01*
X7285Y-12233D01*
X6685Y-12233D01*
X6594Y-12271D01*
X6523Y-12341D01*
X6485Y-12433D01*
X6485Y-12532D01*
X6485Y-13132D01*
X6523Y-13224D01*
X6593Y-13295D01*
X6685Y-13333D01*
X6784Y-13333D01*
X7384Y-13333D01*
X7476Y-13295D01*
X7547Y-13225D01*
X7585Y-13133D01*
X7585Y-13083D01*
X7984Y-13083D01*
X7984Y-13083D01*
X8099Y-13060D01*
X8099Y-13060D01*
X8196Y-12995D01*
X8479Y-12712D01*
X8479Y-12712D01*
X8544Y-12614D01*
X8567Y-12500D01*
X8567Y-12500D01*
X8567Y-9868D01*
X8766Y-9669D01*
X8903Y-9669D01*
X8903Y-9823D01*
X8911Y-9842D01*
X8903Y-9861D01*
X8903Y-9960D01*
X8903Y-10137D01*
X8911Y-10157D01*
X8903Y-10177D01*
X8903Y-10276D01*
X8903Y-10453D01*
X8911Y-10472D01*
X8903Y-10491D01*
X8903Y-10590D01*
X8903Y-10767D01*
X8941Y-10859D01*
X9011Y-10930D01*
X9103Y-10968D01*
X9202Y-10968D01*
X9989Y-10968D01*
X9998Y-10964D01*
X9996Y-10970D01*
X9996Y-11069D01*
X9996Y-11856D01*
X10034Y-11948D01*
X10104Y-12019D01*
X10196Y-12057D01*
X10295Y-12057D01*
X10472Y-12057D01*
X10492Y-12049D01*
X10511Y-12057D01*
X10610Y-12057D01*
X10787Y-12057D01*
X10807Y-12049D01*
X10826Y-12057D01*
X10858Y-12057D01*
X10920Y-11994D01*
X10920Y-11978D01*
X10950Y-11949D01*
X10964Y-11913D01*
X10979Y-11948D01*
X11009Y-11978D01*
X11009Y-11994D01*
X11071Y-12057D01*
X11103Y-12057D01*
X11122Y-12049D01*
X11141Y-12057D01*
X11240Y-12057D01*
X11417Y-12057D01*
X11437Y-12049D01*
X11456Y-12057D01*
X11488Y-12057D01*
X11550Y-11994D01*
X11550Y-11978D01*
X11580Y-11949D01*
X11594Y-11913D01*
X11609Y-11948D01*
X11639Y-11978D01*
X11639Y-11994D01*
X11701Y-12057D01*
X11731Y-12057D01*
X11391Y-12396D01*
X10137Y-12396D01*
X10022Y-12419D01*
X9925Y-12484D01*
X9630Y-12779D01*
X9565Y-12877D01*
X9542Y-12992D01*
X9542Y-13234D01*
X8710Y-13234D01*
X8618Y-13272D01*
X8548Y-13342D01*
X8509Y-13434D01*
X8509Y-13533D01*
X8509Y-14124D01*
X8547Y-14216D01*
X8618Y-14286D01*
X8709Y-14324D01*
X8809Y-14324D01*
X9542Y-14324D01*
X9542Y-14364D01*
X9482Y-14424D01*
X9417Y-14580D01*
X9417Y-14749D01*
X9482Y-14905D01*
X9601Y-15025D01*
X9757Y-15090D01*
X9926Y-15090D01*
X10082Y-15025D01*
X10202Y-14906D01*
X10267Y-14750D01*
X10267Y-14581D01*
X10203Y-14424D01*
X10142Y-14364D01*
X10142Y-14324D01*
X10974Y-14324D01*
X11066Y-14286D01*
X11137Y-14216D01*
X11175Y-14124D01*
X11175Y-14025D01*
X11175Y-13434D01*
X11137Y-13342D01*
X11066Y-13272D01*
X10975Y-13234D01*
X10875Y-13234D01*
X10142Y-13234D01*
X10142Y-13116D01*
X10262Y-12996D01*
X11515Y-12996D01*
X11515Y-12996D01*
X11630Y-12974D01*
X11630Y-12974D01*
X11727Y-12908D01*
X12352Y-12284D01*
X12888Y-12821D01*
X12888Y-13234D01*
X12056Y-13234D01*
X11964Y-13272D01*
X11894Y-13342D01*
X11856Y-13434D01*
X11856Y-13533D01*
X11856Y-14124D01*
X11894Y-14216D01*
X11964Y-14286D01*
X12056Y-14324D01*
X12155Y-14324D01*
X12888Y-14324D01*
X12888Y-14364D01*
X12828Y-14424D01*
X12764Y-14580D01*
X12763Y-14749D01*
X12828Y-14905D01*
X12947Y-15025D01*
X13104Y-15090D01*
X13273Y-15090D01*
X13429Y-15025D01*
X13549Y-14906D01*
X13613Y-14750D01*
X13614Y-14581D01*
X13549Y-14424D01*
X13488Y-14364D01*
X13488Y-14324D01*
X14321Y-14324D01*
X14413Y-14286D01*
X14483Y-14216D01*
X14521Y-14124D01*
X14521Y-14025D01*
X14521Y-13434D01*
X14483Y-13342D01*
X14413Y-13272D01*
X14321Y-13234D01*
X14222Y-13234D01*
X13488Y-13234D01*
X13488Y-12696D01*
X13466Y-12582D01*
X13466Y-12582D01*
X13401Y-12484D01*
X12847Y-11931D01*
X12878Y-11857D01*
X12878Y-11757D01*
X12878Y-10970D01*
X12875Y-10962D01*
X12883Y-10966D01*
X12982Y-10966D01*
X13769Y-10966D01*
X13861Y-10928D01*
X13932Y-10858D01*
X13970Y-10766D01*
X13970Y-10666D01*
X13970Y-10489D01*
X13963Y-10472D01*
X13970Y-10456D01*
X13970Y-10356D01*
X13970Y-10179D01*
X13961Y-10157D01*
X13970Y-10136D01*
X13970Y-10036D01*
X13970Y-9859D01*
X13963Y-9842D01*
X13970Y-9826D01*
X13970Y-9726D01*
X13970Y-9549D01*
X13963Y-9532D01*
X13970Y-9516D01*
X13970Y-9416D01*
X13970Y-9239D01*
X13961Y-9217D01*
X13970Y-9196D01*
X13970Y-9096D01*
X13970Y-9037D01*
X14069Y-9037D01*
X14186Y-9086D01*
X14355Y-9086D01*
X14512Y-9021D01*
X14631Y-8902D01*
X14696Y-8746D01*
X14696Y-8577D01*
X14632Y-8420D01*
X14512Y-8301D01*
X14356Y-8236D01*
X14235Y-8236D01*
X14270Y-8200D01*
X14355Y-8200D01*
X14512Y-8136D01*
X14631Y-8016D01*
X14696Y-7860D01*
X14696Y-7691D01*
X14692Y-7681D01*
X14698Y-7681D01*
X14697Y-7884D01*
X14781Y-8086D01*
X14936Y-8241D01*
X15017Y-8275D01*
X14936Y-8309D01*
X14782Y-8463D01*
X14698Y-8665D01*
X14697Y-8884D01*
X14781Y-9086D01*
X14936Y-9241D01*
X15138Y-9325D01*
X15356Y-9325D01*
X15559Y-9242D01*
X15714Y-9087D01*
X15745Y-9011D01*
X15766Y-9063D01*
X15862Y-9090D01*
X16177Y-8775D01*
X15862Y-8460D01*
X15766Y-8487D01*
X15747Y-8543D01*
X15714Y-8464D01*
X15559Y-8309D01*
X15478Y-8275D01*
X15559Y-8242D01*
X15714Y-8087D01*
X15748Y-8005D01*
X15781Y-8086D01*
X15936Y-8241D01*
X16011Y-8272D01*
X15960Y-8294D01*
X15932Y-8389D01*
X16248Y-8704D01*
X16563Y-8389D01*
X16535Y-8294D01*
X16480Y-8274D01*
X16559Y-8242D01*
X16714Y-8087D01*
X16797Y-7885D01*
X16798Y-7666D01*
X16798Y-8763D01*
X16791Y-8638D01*
X16729Y-8487D01*
X16633Y-8460D01*
X16318Y-8775D01*
X16633Y-9090D01*
X16729Y-9063D01*
X16802Y-8857D01*
X16802Y-15205D01*
X16770Y-15205D01*
X16770Y-14593D01*
X16770Y-13993D01*
X16770Y-13093D01*
X16770Y-12493D01*
X16770Y-11692D01*
X16770Y-10993D01*
X16732Y-10901D01*
X16662Y-10830D01*
X16570Y-10792D01*
X16563Y-10792D01*
X16563Y-9161D01*
X16248Y-8846D01*
X15932Y-9161D01*
X15960Y-9256D01*
X16166Y-9330D01*
X16384Y-9319D01*
X16535Y-9256D01*
X16563Y-9161D01*
X16563Y-10792D01*
X16470Y-10792D01*
X16332Y-10792D01*
X16270Y-10855D01*
X16270Y-11292D01*
X16707Y-11292D01*
X16770Y-11230D01*
X16770Y-10993D01*
X16770Y-11692D01*
X16770Y-11455D01*
X16707Y-11392D01*
X16270Y-11392D01*
X16270Y-11830D01*
X16332Y-11892D01*
X16470Y-11892D01*
X16570Y-11892D01*
X16662Y-11854D01*
X16732Y-11783D01*
X16770Y-11692D01*
X16770Y-12493D01*
X16732Y-12401D01*
X16662Y-12330D01*
X16570Y-12292D01*
X16470Y-12292D01*
X16170Y-12292D01*
X16170Y-11830D01*
X16170Y-11392D01*
X16170Y-11292D01*
X16170Y-10855D01*
X16107Y-10792D01*
X15969Y-10792D01*
X15870Y-10792D01*
X15778Y-10830D01*
X15708Y-10901D01*
X15670Y-10993D01*
X15670Y-11230D01*
X15732Y-11292D01*
X16170Y-11292D01*
X16170Y-11392D01*
X15732Y-11392D01*
X15670Y-11455D01*
X15670Y-11692D01*
X15708Y-11783D01*
X15778Y-11854D01*
X15870Y-11892D01*
X15969Y-11892D01*
X16107Y-11892D01*
X16170Y-11830D01*
X16170Y-12292D01*
X15870Y-12292D01*
X15779Y-12330D01*
X15708Y-12400D01*
X15670Y-12492D01*
X15670Y-12592D01*
X15670Y-13192D01*
X15708Y-13283D01*
X15778Y-13354D01*
X15870Y-13392D01*
X15969Y-13392D01*
X16569Y-13392D01*
X16661Y-13354D01*
X16732Y-13284D01*
X16770Y-13192D01*
X16770Y-13093D01*
X16770Y-13993D01*
X16732Y-13901D01*
X16662Y-13830D01*
X16570Y-13792D01*
X16470Y-13792D01*
X15870Y-13792D01*
X15779Y-13830D01*
X15708Y-13900D01*
X15670Y-13992D01*
X15670Y-14092D01*
X15670Y-14692D01*
X15708Y-14783D01*
X15778Y-14854D01*
X15870Y-14892D01*
X15969Y-14892D01*
X16569Y-14892D01*
X16661Y-14854D01*
X16732Y-14784D01*
X16770Y-14692D01*
X16770Y-14593D01*
X16770Y-15205D01*
X7585Y-15205D01*
X7585Y-14533D01*
X7585Y-13933D01*
X7547Y-13842D01*
X7477Y-13771D01*
X7385Y-13733D01*
X7285Y-13733D01*
X6685Y-13733D01*
X6594Y-13771D01*
X6523Y-13841D01*
X6485Y-13933D01*
X6485Y-14032D01*
X6485Y-14632D01*
X6523Y-14724D01*
X6593Y-14795D01*
X6685Y-14833D01*
X6784Y-14833D01*
X7384Y-14833D01*
X7476Y-14795D01*
X7547Y-14725D01*
X7585Y-14633D01*
X7585Y-14533D01*
X7585Y-15205D01*
X5955Y-15205D01*
X5955Y-5857D01*
X17469Y-5857D01*
X17469Y-15205D01*
M02*
