M48
INCH,TZ
T1C0.025
T2C0.040
%
G90
G05
T1
X7677Y-10531
X7874Y-9252
X8169Y-7776
X8760Y-10531
X9547Y-12205
X9843Y-14665
X10433Y-8366
X10433Y-9154
X10531Y-10236
X10925Y-8760
X11516Y-8366
X11614Y-6594
X11614Y-10531
X11811Y-9055
X12106Y-8563
X12303Y-12795
X12500Y-10236
X12598Y-8465
X13189Y-14665
X13484Y-6791
X13484Y-7776
X14272Y-7776
X14272Y-8661
X14272Y-11811
X14961Y-14567
X15256Y-12795
T2
X7035Y-6783
X7035Y-8283
X7035Y-9783
X7035Y-11283
X7035Y-12783
X7035Y-14283
X15248Y-6776
X15248Y-7776
X15248Y-8776
X16220Y-11343
X16220Y-12843
X16220Y-14343
X16248Y-6776
X16248Y-7776
X16248Y-8776
T0
M30
