G04 (created by PCBNEW (2013-may-18)-stable) date Sun 03 May 2015 02:23:39 PM EDT*
%MOIN*%
G04 Gerber Fmt 3.4, Leading zero omitted, Abs format*
%FSLAX34Y34*%
G01*
G70*
G90*
G04 APERTURE LIST*
%ADD10C,0.00590551*%
%ADD11C,0.00492126*%
%ADD12C,0.008*%
%ADD13C,0.006*%
%ADD14C,0.012*%
G04 APERTURE END LIST*
G54D10*
G54D11*
X13563Y-12265D02*
X13470Y-12331D01*
X13563Y-12378D02*
X13367Y-12378D01*
X13367Y-12303D01*
X13376Y-12284D01*
X13385Y-12275D01*
X13404Y-12265D01*
X13432Y-12265D01*
X13451Y-12275D01*
X13460Y-12284D01*
X13470Y-12303D01*
X13470Y-12378D01*
X13554Y-12106D02*
X13563Y-12125D01*
X13563Y-12162D01*
X13554Y-12181D01*
X13535Y-12190D01*
X13460Y-12190D01*
X13442Y-12181D01*
X13432Y-12162D01*
X13432Y-12125D01*
X13442Y-12106D01*
X13460Y-12096D01*
X13479Y-12096D01*
X13498Y-12190D01*
X13432Y-12031D02*
X13563Y-11984D01*
X13432Y-11937D01*
X13507Y-11721D02*
X13507Y-11628D01*
X13563Y-11740D02*
X13367Y-11675D01*
X13563Y-11609D01*
X13710Y-12964D02*
X13701Y-12954D01*
X13691Y-12935D01*
X13691Y-12889D01*
X13701Y-12870D01*
X13710Y-12860D01*
X13729Y-12851D01*
X13748Y-12851D01*
X13776Y-12860D01*
X13888Y-12973D01*
X13888Y-12851D01*
X13691Y-12729D02*
X13691Y-12710D01*
X13701Y-12692D01*
X13710Y-12682D01*
X13729Y-12673D01*
X13766Y-12664D01*
X13813Y-12664D01*
X13851Y-12673D01*
X13869Y-12682D01*
X13879Y-12692D01*
X13888Y-12710D01*
X13888Y-12729D01*
X13879Y-12748D01*
X13869Y-12757D01*
X13851Y-12767D01*
X13813Y-12776D01*
X13766Y-12776D01*
X13729Y-12767D01*
X13710Y-12757D01*
X13701Y-12748D01*
X13691Y-12729D01*
X13888Y-12476D02*
X13888Y-12589D01*
X13888Y-12532D02*
X13691Y-12532D01*
X13720Y-12551D01*
X13738Y-12570D01*
X13748Y-12589D01*
X13691Y-12298D02*
X13691Y-12392D01*
X13785Y-12401D01*
X13776Y-12392D01*
X13766Y-12373D01*
X13766Y-12326D01*
X13776Y-12307D01*
X13785Y-12298D01*
X13804Y-12289D01*
X13851Y-12289D01*
X13869Y-12298D01*
X13879Y-12307D01*
X13888Y-12326D01*
X13888Y-12373D01*
X13879Y-12392D01*
X13869Y-12401D01*
X13813Y-12204D02*
X13813Y-12054D01*
X13691Y-11923D02*
X13691Y-11904D01*
X13701Y-11886D01*
X13710Y-11876D01*
X13729Y-11867D01*
X13766Y-11857D01*
X13813Y-11857D01*
X13851Y-11867D01*
X13869Y-11876D01*
X13879Y-11886D01*
X13888Y-11904D01*
X13888Y-11923D01*
X13879Y-11942D01*
X13869Y-11951D01*
X13851Y-11961D01*
X13813Y-11970D01*
X13766Y-11970D01*
X13729Y-11961D01*
X13710Y-11951D01*
X13701Y-11942D01*
X13691Y-11923D01*
X13691Y-11679D02*
X13691Y-11773D01*
X13785Y-11782D01*
X13776Y-11773D01*
X13766Y-11754D01*
X13766Y-11707D01*
X13776Y-11689D01*
X13785Y-11679D01*
X13804Y-11670D01*
X13851Y-11670D01*
X13869Y-11679D01*
X13879Y-11689D01*
X13888Y-11707D01*
X13888Y-11754D01*
X13879Y-11773D01*
X13869Y-11782D01*
X13813Y-11586D02*
X13813Y-11436D01*
X13691Y-11304D02*
X13691Y-11286D01*
X13701Y-11267D01*
X13710Y-11257D01*
X13729Y-11248D01*
X13766Y-11239D01*
X13813Y-11239D01*
X13851Y-11248D01*
X13869Y-11257D01*
X13879Y-11267D01*
X13888Y-11286D01*
X13888Y-11304D01*
X13879Y-11323D01*
X13869Y-11332D01*
X13851Y-11342D01*
X13813Y-11351D01*
X13766Y-11351D01*
X13729Y-11342D01*
X13710Y-11332D01*
X13701Y-11323D01*
X13691Y-11304D01*
X13691Y-11173D02*
X13691Y-11051D01*
X13766Y-11117D01*
X13766Y-11089D01*
X13776Y-11070D01*
X13785Y-11061D01*
X13804Y-11051D01*
X13851Y-11051D01*
X13869Y-11061D01*
X13879Y-11070D01*
X13888Y-11089D01*
X13888Y-11145D01*
X13879Y-11164D01*
X13869Y-11173D01*
X14843Y-12898D02*
X14834Y-12917D01*
X14824Y-12926D01*
X14805Y-12935D01*
X14749Y-12935D01*
X14730Y-12926D01*
X14721Y-12917D01*
X14712Y-12898D01*
X14712Y-12870D01*
X14721Y-12851D01*
X14730Y-12842D01*
X14749Y-12832D01*
X14805Y-12832D01*
X14824Y-12842D01*
X14834Y-12851D01*
X14843Y-12870D01*
X14843Y-12898D01*
X14712Y-12748D02*
X14909Y-12748D01*
X14721Y-12748D02*
X14712Y-12729D01*
X14712Y-12692D01*
X14721Y-12673D01*
X14730Y-12664D01*
X14749Y-12654D01*
X14805Y-12654D01*
X14824Y-12664D01*
X14834Y-12673D01*
X14843Y-12692D01*
X14843Y-12729D01*
X14834Y-12748D01*
X14834Y-12495D02*
X14843Y-12514D01*
X14843Y-12551D01*
X14834Y-12570D01*
X14815Y-12579D01*
X14740Y-12579D01*
X14721Y-12570D01*
X14712Y-12551D01*
X14712Y-12514D01*
X14721Y-12495D01*
X14740Y-12485D01*
X14759Y-12485D01*
X14777Y-12579D01*
X14712Y-12401D02*
X14843Y-12401D01*
X14730Y-12401D02*
X14721Y-12392D01*
X14712Y-12373D01*
X14712Y-12345D01*
X14721Y-12326D01*
X14740Y-12317D01*
X14843Y-12317D01*
X14834Y-12082D02*
X14843Y-12064D01*
X14843Y-12026D01*
X14834Y-12007D01*
X14815Y-11998D01*
X14805Y-11998D01*
X14787Y-12007D01*
X14777Y-12026D01*
X14777Y-12054D01*
X14768Y-12073D01*
X14749Y-12082D01*
X14740Y-12082D01*
X14721Y-12073D01*
X14712Y-12054D01*
X14712Y-12026D01*
X14721Y-12007D01*
X14843Y-11886D02*
X14834Y-11904D01*
X14824Y-11914D01*
X14805Y-11923D01*
X14749Y-11923D01*
X14730Y-11914D01*
X14721Y-11904D01*
X14712Y-11886D01*
X14712Y-11857D01*
X14721Y-11839D01*
X14730Y-11829D01*
X14749Y-11820D01*
X14805Y-11820D01*
X14824Y-11829D01*
X14834Y-11839D01*
X14843Y-11857D01*
X14843Y-11886D01*
X14712Y-11651D02*
X14843Y-11651D01*
X14712Y-11736D02*
X14815Y-11736D01*
X14834Y-11726D01*
X14843Y-11707D01*
X14843Y-11679D01*
X14834Y-11661D01*
X14824Y-11651D01*
X14843Y-11557D02*
X14712Y-11557D01*
X14749Y-11557D02*
X14730Y-11548D01*
X14721Y-11539D01*
X14712Y-11520D01*
X14712Y-11501D01*
X14834Y-11351D02*
X14843Y-11370D01*
X14843Y-11407D01*
X14834Y-11426D01*
X14824Y-11436D01*
X14805Y-11445D01*
X14749Y-11445D01*
X14730Y-11436D01*
X14721Y-11426D01*
X14712Y-11407D01*
X14712Y-11370D01*
X14721Y-11351D01*
X14834Y-11192D02*
X14843Y-11211D01*
X14843Y-11248D01*
X14834Y-11267D01*
X14815Y-11276D01*
X14740Y-11276D01*
X14721Y-11267D01*
X14712Y-11248D01*
X14712Y-11211D01*
X14721Y-11192D01*
X14740Y-11182D01*
X14759Y-11182D01*
X14777Y-11276D01*
X14843Y-10948D02*
X14646Y-10948D01*
X14843Y-10864D02*
X14740Y-10864D01*
X14721Y-10873D01*
X14712Y-10892D01*
X14712Y-10920D01*
X14721Y-10939D01*
X14730Y-10948D01*
X14843Y-10686D02*
X14740Y-10686D01*
X14721Y-10695D01*
X14712Y-10714D01*
X14712Y-10751D01*
X14721Y-10770D01*
X14834Y-10686D02*
X14843Y-10704D01*
X14843Y-10751D01*
X14834Y-10770D01*
X14815Y-10779D01*
X14796Y-10779D01*
X14777Y-10770D01*
X14768Y-10751D01*
X14768Y-10704D01*
X14759Y-10686D01*
X14843Y-10592D02*
X14712Y-10592D01*
X14749Y-10592D02*
X14730Y-10583D01*
X14721Y-10573D01*
X14712Y-10554D01*
X14712Y-10536D01*
X14843Y-10386D02*
X14646Y-10386D01*
X14834Y-10386D02*
X14843Y-10404D01*
X14843Y-10442D01*
X14834Y-10461D01*
X14824Y-10470D01*
X14805Y-10479D01*
X14749Y-10479D01*
X14730Y-10470D01*
X14721Y-10461D01*
X14712Y-10442D01*
X14712Y-10404D01*
X14721Y-10386D01*
X14712Y-10311D02*
X14843Y-10273D01*
X14749Y-10236D01*
X14843Y-10198D01*
X14712Y-10161D01*
X14843Y-10001D02*
X14740Y-10001D01*
X14721Y-10011D01*
X14712Y-10029D01*
X14712Y-10067D01*
X14721Y-10086D01*
X14834Y-10001D02*
X14843Y-10020D01*
X14843Y-10067D01*
X14834Y-10086D01*
X14815Y-10095D01*
X14796Y-10095D01*
X14777Y-10086D01*
X14768Y-10067D01*
X14768Y-10020D01*
X14759Y-10001D01*
X14843Y-9908D02*
X14712Y-9908D01*
X14749Y-9908D02*
X14730Y-9898D01*
X14721Y-9889D01*
X14712Y-9870D01*
X14712Y-9851D01*
X14834Y-9711D02*
X14843Y-9730D01*
X14843Y-9767D01*
X14834Y-9786D01*
X14815Y-9795D01*
X14740Y-9795D01*
X14721Y-9786D01*
X14712Y-9767D01*
X14712Y-9730D01*
X14721Y-9711D01*
X14740Y-9701D01*
X14759Y-9701D01*
X14777Y-9795D01*
X14971Y-12017D02*
X15112Y-12017D01*
X15140Y-12026D01*
X15158Y-12045D01*
X15168Y-12073D01*
X15168Y-12092D01*
X15168Y-11895D02*
X15158Y-11914D01*
X15149Y-11923D01*
X15130Y-11932D01*
X15074Y-11932D01*
X15055Y-11923D01*
X15046Y-11914D01*
X15037Y-11895D01*
X15037Y-11867D01*
X15046Y-11848D01*
X15055Y-11839D01*
X15074Y-11829D01*
X15130Y-11829D01*
X15149Y-11839D01*
X15158Y-11848D01*
X15168Y-11867D01*
X15168Y-11895D01*
X15158Y-11754D02*
X15168Y-11736D01*
X15168Y-11698D01*
X15158Y-11679D01*
X15140Y-11670D01*
X15130Y-11670D01*
X15112Y-11679D01*
X15102Y-11698D01*
X15102Y-11726D01*
X15093Y-11745D01*
X15074Y-11754D01*
X15065Y-11754D01*
X15046Y-11745D01*
X15037Y-11726D01*
X15037Y-11698D01*
X15046Y-11679D01*
X15168Y-11586D02*
X14971Y-11586D01*
X15168Y-11501D02*
X15065Y-11501D01*
X15046Y-11511D01*
X15037Y-11529D01*
X15037Y-11557D01*
X15046Y-11576D01*
X15055Y-11586D01*
X14971Y-11276D02*
X15168Y-11229D01*
X15027Y-11192D01*
X15168Y-11154D01*
X14971Y-11107D01*
X15168Y-10948D02*
X15065Y-10948D01*
X15046Y-10958D01*
X15037Y-10976D01*
X15037Y-11014D01*
X15046Y-11032D01*
X15158Y-10948D02*
X15168Y-10967D01*
X15168Y-11014D01*
X15158Y-11032D01*
X15140Y-11042D01*
X15121Y-11042D01*
X15102Y-11032D01*
X15093Y-11014D01*
X15093Y-10967D01*
X15083Y-10948D01*
X15037Y-10883D02*
X15037Y-10808D01*
X14971Y-10854D02*
X15140Y-10854D01*
X15158Y-10845D01*
X15168Y-10826D01*
X15168Y-10808D01*
X15037Y-10770D02*
X15037Y-10695D01*
X14971Y-10742D02*
X15140Y-10742D01*
X15158Y-10733D01*
X15168Y-10714D01*
X15168Y-10695D01*
X15158Y-10639D02*
X15168Y-10620D01*
X15168Y-10583D01*
X15158Y-10564D01*
X15140Y-10554D01*
X15130Y-10554D01*
X15112Y-10564D01*
X15102Y-10583D01*
X15102Y-10611D01*
X15093Y-10629D01*
X15074Y-10639D01*
X15065Y-10639D01*
X15046Y-10629D01*
X15037Y-10611D01*
X15037Y-10583D01*
X15046Y-10564D01*
G54D12*
X14748Y-9275D02*
X14748Y-6275D01*
X16748Y-6275D02*
X16748Y-9275D01*
X16748Y-9275D02*
X14748Y-9275D01*
X14748Y-6275D02*
X16748Y-6275D01*
G54D13*
X16720Y-13842D02*
X16720Y-14842D01*
X15720Y-14842D02*
X15720Y-13842D01*
X16720Y-14842D02*
X15720Y-14842D01*
X15720Y-13842D02*
X16720Y-13842D01*
X7535Y-6283D02*
X7535Y-7283D01*
X6535Y-7283D02*
X6535Y-6283D01*
X7535Y-7283D02*
X6535Y-7283D01*
X6535Y-6283D02*
X7535Y-6283D01*
X7535Y-7783D02*
X7535Y-8783D01*
X6535Y-8783D02*
X6535Y-7783D01*
X7535Y-8783D02*
X6535Y-8783D01*
X6535Y-7783D02*
X7535Y-7783D01*
X7535Y-9283D02*
X7535Y-10283D01*
X6535Y-10283D02*
X6535Y-9283D01*
X7535Y-10283D02*
X6535Y-10283D01*
X6535Y-9283D02*
X7535Y-9283D01*
X7535Y-10783D02*
X7535Y-11783D01*
X6535Y-11783D02*
X6535Y-10783D01*
X7535Y-11783D02*
X6535Y-11783D01*
X6535Y-10783D02*
X7535Y-10783D01*
X7535Y-12283D02*
X7535Y-13283D01*
X6535Y-13283D02*
X6535Y-12283D01*
X7535Y-13283D02*
X6535Y-13283D01*
X6535Y-12283D02*
X7535Y-12283D01*
X7535Y-13783D02*
X7535Y-14783D01*
X6535Y-14783D02*
X6535Y-13783D01*
X7535Y-14783D02*
X6535Y-14783D01*
X6535Y-13783D02*
X7535Y-13783D01*
X16720Y-10842D02*
X16720Y-11842D01*
X15720Y-11842D02*
X15720Y-10842D01*
X16720Y-11842D02*
X15720Y-11842D01*
X15720Y-10842D02*
X16720Y-10842D01*
X16720Y-12342D02*
X16720Y-13342D01*
X15720Y-13342D02*
X15720Y-12342D01*
X16720Y-13342D02*
X15720Y-13342D01*
X15720Y-12342D02*
X16720Y-12342D01*
G54D14*
X12536Y-7537D02*
X12536Y-7987D01*
X10356Y-7537D02*
X10356Y-7977D01*
X12536Y-7537D02*
X10356Y-7537D01*
X13006Y-8417D02*
X13436Y-8417D01*
X13016Y-10627D02*
X13436Y-10627D01*
X13436Y-10637D02*
X13446Y-8417D01*
X9466Y-10617D02*
X9456Y-8447D01*
X10156Y-11047D02*
X12986Y-11047D01*
X9466Y-8437D02*
X9876Y-8437D01*
X9916Y-10797D02*
X9916Y-8017D01*
X12996Y-7997D02*
X9956Y-7997D01*
X12996Y-11047D02*
X12996Y-8047D01*
X10326Y-11497D02*
X12546Y-11497D01*
X12546Y-11497D02*
X12546Y-11047D01*
X10146Y-11043D02*
X9916Y-10813D01*
X10326Y-11495D02*
X10326Y-11043D01*
X9916Y-10617D02*
X9464Y-10617D01*
X10509Y-10635D02*
G75*
G03X10509Y-10635I-188J0D01*
G74*
G01*
G54D12*
X17249Y-8261D02*
X17268Y-8280D01*
X17287Y-8337D01*
X17287Y-8375D01*
X17268Y-8432D01*
X17230Y-8470D01*
X17192Y-8489D01*
X17116Y-8508D01*
X17059Y-8508D01*
X16983Y-8489D01*
X16945Y-8470D01*
X16906Y-8432D01*
X16887Y-8375D01*
X16887Y-8337D01*
X16906Y-8280D01*
X16925Y-8261D01*
X16887Y-8013D02*
X16887Y-7937D01*
X16906Y-7899D01*
X16945Y-7861D01*
X17021Y-7842D01*
X17154Y-7842D01*
X17230Y-7861D01*
X17268Y-7899D01*
X17287Y-7937D01*
X17287Y-8013D01*
X17268Y-8051D01*
X17230Y-8089D01*
X17154Y-8108D01*
X17021Y-8108D01*
X16945Y-8089D01*
X16906Y-8051D01*
X16887Y-8013D01*
X17287Y-7670D02*
X16887Y-7670D01*
X17287Y-7442D01*
X16887Y-7442D01*
X17287Y-7042D02*
X17287Y-7270D01*
X17287Y-7156D02*
X16887Y-7156D01*
X16945Y-7194D01*
X16983Y-7232D01*
X17002Y-7270D01*
G54D13*
X17148Y-14493D02*
X16848Y-14493D01*
X16848Y-14378D01*
X16863Y-14350D01*
X16877Y-14335D01*
X16906Y-14321D01*
X16948Y-14321D01*
X16977Y-14335D01*
X16991Y-14350D01*
X17006Y-14378D01*
X17006Y-14493D01*
X16848Y-14221D02*
X16848Y-14021D01*
X17148Y-14150D01*
X6406Y-7004D02*
X6106Y-7004D01*
X6106Y-6890D01*
X6121Y-6862D01*
X6135Y-6847D01*
X6164Y-6833D01*
X6206Y-6833D01*
X6235Y-6847D01*
X6249Y-6862D01*
X6264Y-6890D01*
X6264Y-7004D01*
X6106Y-6576D02*
X6106Y-6633D01*
X6121Y-6662D01*
X6135Y-6676D01*
X6178Y-6704D01*
X6235Y-6719D01*
X6349Y-6719D01*
X6378Y-6704D01*
X6392Y-6690D01*
X6406Y-6662D01*
X6406Y-6604D01*
X6392Y-6576D01*
X6378Y-6562D01*
X6349Y-6547D01*
X6278Y-6547D01*
X6249Y-6562D01*
X6235Y-6576D01*
X6221Y-6604D01*
X6221Y-6662D01*
X6235Y-6690D01*
X6249Y-6704D01*
X6278Y-6719D01*
X6406Y-8504D02*
X6106Y-8504D01*
X6106Y-8390D01*
X6121Y-8362D01*
X6135Y-8347D01*
X6164Y-8333D01*
X6206Y-8333D01*
X6235Y-8347D01*
X6249Y-8362D01*
X6264Y-8390D01*
X6264Y-8504D01*
X6106Y-8062D02*
X6106Y-8204D01*
X6249Y-8219D01*
X6235Y-8204D01*
X6221Y-8176D01*
X6221Y-8104D01*
X6235Y-8076D01*
X6249Y-8062D01*
X6278Y-8047D01*
X6349Y-8047D01*
X6378Y-8062D01*
X6392Y-8076D01*
X6406Y-8104D01*
X6406Y-8176D01*
X6392Y-8204D01*
X6378Y-8219D01*
X6406Y-10004D02*
X6106Y-10004D01*
X6106Y-9890D01*
X6121Y-9862D01*
X6135Y-9847D01*
X6164Y-9833D01*
X6206Y-9833D01*
X6235Y-9847D01*
X6249Y-9862D01*
X6264Y-9890D01*
X6264Y-10004D01*
X6206Y-9576D02*
X6406Y-9576D01*
X6092Y-9647D02*
X6306Y-9719D01*
X6306Y-9533D01*
X6406Y-11504D02*
X6106Y-11504D01*
X6106Y-11390D01*
X6121Y-11362D01*
X6135Y-11347D01*
X6164Y-11333D01*
X6206Y-11333D01*
X6235Y-11347D01*
X6249Y-11362D01*
X6264Y-11390D01*
X6264Y-11504D01*
X6106Y-11233D02*
X6106Y-11047D01*
X6221Y-11147D01*
X6221Y-11104D01*
X6235Y-11076D01*
X6249Y-11062D01*
X6278Y-11047D01*
X6349Y-11047D01*
X6378Y-11062D01*
X6392Y-11076D01*
X6406Y-11104D01*
X6406Y-11190D01*
X6392Y-11219D01*
X6378Y-11233D01*
X6406Y-13004D02*
X6106Y-13004D01*
X6106Y-12890D01*
X6121Y-12862D01*
X6135Y-12847D01*
X6164Y-12833D01*
X6206Y-12833D01*
X6235Y-12847D01*
X6249Y-12862D01*
X6264Y-12890D01*
X6264Y-13004D01*
X6135Y-12719D02*
X6121Y-12704D01*
X6106Y-12676D01*
X6106Y-12604D01*
X6121Y-12576D01*
X6135Y-12562D01*
X6164Y-12547D01*
X6192Y-12547D01*
X6235Y-12562D01*
X6406Y-12733D01*
X6406Y-12547D01*
X6406Y-14504D02*
X6106Y-14504D01*
X6106Y-14390D01*
X6121Y-14362D01*
X6135Y-14347D01*
X6164Y-14333D01*
X6206Y-14333D01*
X6235Y-14347D01*
X6249Y-14362D01*
X6264Y-14390D01*
X6264Y-14504D01*
X6406Y-14047D02*
X6406Y-14219D01*
X6406Y-14133D02*
X6106Y-14133D01*
X6149Y-14162D01*
X6178Y-14190D01*
X6192Y-14219D01*
X17148Y-11540D02*
X16848Y-11540D01*
X16848Y-11426D01*
X16863Y-11397D01*
X16877Y-11383D01*
X16906Y-11368D01*
X16948Y-11368D01*
X16977Y-11383D01*
X16991Y-11397D01*
X17006Y-11426D01*
X17006Y-11540D01*
X17148Y-11226D02*
X17148Y-11168D01*
X17134Y-11140D01*
X17120Y-11126D01*
X17077Y-11097D01*
X17020Y-11083D01*
X16906Y-11083D01*
X16877Y-11097D01*
X16863Y-11111D01*
X16848Y-11140D01*
X16848Y-11197D01*
X16863Y-11226D01*
X16877Y-11240D01*
X16906Y-11254D01*
X16977Y-11254D01*
X17006Y-11240D01*
X17020Y-11226D01*
X17034Y-11197D01*
X17034Y-11140D01*
X17020Y-11111D01*
X17006Y-11097D01*
X16977Y-11083D01*
X17148Y-13016D02*
X16848Y-13016D01*
X16848Y-12902D01*
X16863Y-12873D01*
X16877Y-12859D01*
X16906Y-12845D01*
X16948Y-12845D01*
X16977Y-12859D01*
X16991Y-12873D01*
X17006Y-12902D01*
X17006Y-13016D01*
X16977Y-12673D02*
X16963Y-12702D01*
X16948Y-12716D01*
X16920Y-12730D01*
X16906Y-12730D01*
X16877Y-12716D01*
X16863Y-12702D01*
X16848Y-12673D01*
X16848Y-12616D01*
X16863Y-12588D01*
X16877Y-12573D01*
X16906Y-12559D01*
X16920Y-12559D01*
X16948Y-12573D01*
X16963Y-12588D01*
X16977Y-12616D01*
X16977Y-12673D01*
X16991Y-12702D01*
X17006Y-12716D01*
X17034Y-12730D01*
X17091Y-12730D01*
X17120Y-12716D01*
X17134Y-12702D01*
X17148Y-12673D01*
X17148Y-12616D01*
X17134Y-12588D01*
X17120Y-12573D01*
X17091Y-12559D01*
X17034Y-12559D01*
X17006Y-12573D01*
X16991Y-12588D01*
X16977Y-12616D01*
G54D10*
X11281Y-14885D02*
X11675Y-14623D01*
X11281Y-14623D02*
X11675Y-14885D01*
X11675Y-14266D02*
X11675Y-14491D01*
X11675Y-14379D02*
X11281Y-14379D01*
X11337Y-14416D01*
X11375Y-14454D01*
X11393Y-14491D01*
G54D12*
X9651Y-7771D02*
X9151Y-7771D01*
X9603Y-7247D02*
X9627Y-7271D01*
X9651Y-7342D01*
X9651Y-7390D01*
X9627Y-7462D01*
X9579Y-7509D01*
X9532Y-7533D01*
X9436Y-7557D01*
X9365Y-7557D01*
X9270Y-7533D01*
X9222Y-7509D01*
X9175Y-7462D01*
X9151Y-7390D01*
X9151Y-7342D01*
X9175Y-7271D01*
X9198Y-7247D01*
X9651Y-6771D02*
X9651Y-7057D01*
X9651Y-6914D02*
X9151Y-6914D01*
X9222Y-6962D01*
X9270Y-7009D01*
X9294Y-7057D01*
M02*
